<?xml version="1.0" encoding="UTF-8"?>
<svg id="Lag_1" data-name="Lag 1" xmlns="http://www.w3.org/2000/svg" viewBox="0 0 251.15 396.47">
  <defs>
    <style>
      .cls-1, .cls-2 {
        opacity: .16;
        stroke: #000;
        stroke-miterlimit: 10;
        stroke-width: .25px;
      }

      .cls-3 {
        fill: #6c4825;
      }

      .cls-4 {
        fill: #a2c7ff;
      }

      .cls-5 {
        fill: #e3e3e3;
      }

      .cls-6 {
        fill: #d38388;
      }

      .cls-7 {
        fill: #403020;
      }

      .cls-8 {
        fill: #956138;
      }

      .cls-9 {
        fill: #936138;
      }

      .cls-10 {
        fill: #403020;
      }

      .cls-2 {
        fill: none;
      }

      .cls-11 {
        fill: #6c4825;
      }

      .cls-12 {
        fill: #a47c52;
      }
    </style>
  </defs>
  <rect class="cls-7" x="88.62" y="212.15" width="81.41" height="184.32"/>
  <path class="cls-3" d="M57.12,145.87s-9.54,22.38-10.89,42.63l-.81,179.13s25.23-26.22,52.33,1.82v-115.82c-1.19,4.33,24.46-45.13,55.58.32l.25,119.52s25.73-27.45,51.23-3.56l1.63-182.45s-1.61-22.85-11.27-38.42c0,0-5.9,31.67-36.77,36.34,0,0-4.03,3.12-10.2-4.67,0,0-16.64,46.99-45.09-.26,0,0-.54,6.23-12.88,3.89,0,0-27.49-8.36-33.13-38.47Z"/>
  <path class="cls-8" d="M46.24,396.47h52.56s11.52-7.25-1.34-29.31c0,0-21.81-26.07-51.66-.65,0,0-14.31,24.99.45,29.96Z"/>
  <path class="cls-8" d="M154.42,396.47h52.56s11.52-7.25-1.34-29.31c0,0-21.81-26.07-51.66-.65,0,0-14.31,24.99.45,29.96Z"/>
  <path class="cls-8" d="M31.1,345.8s-30.02-23.26-18.84-82.97c0,0,12.64,50.92,20.46,55.68l-1.62,27.29Z"/>
  <path class="cls-7" d="M41.02,392.76s-10.06-8.72-11.02-15.21c-.96-6.49,4.61-126.44,16.01-139.42l.24,128.22s-8.42,12.88-5.24,26.41Z"/>
  <path class="cls-11" d="M169.38,0h-84.59S29.02,95.34,29.02,95.34c0,0,3.75,40.88,29.03,58.06,0,0-4.47-42.28,44.06-49.44,0,0,28.56-5.63,53.86,1.65,0,0,38.01,3.72,39.04,45.3l-.05,2.49s39.21-38.92,23.91-63.98L169.38,0Z"/>
  <path class="cls-12" d="M62.61,57.85s7.44-5.83,22.2-5.37c0,0,5.23-.82,5.66-4.16,0,0,1.39-3.52-2.6-5.55,0,0-15.94-.57-25.26,15.08Z"/>
  <path class="cls-12" d="M189.1,57.85s-7.44-5.83-22.2-5.37c0,0-5.23-.82-5.66-4.16,0,0-1.39-3.52,2.6-5.55,0,0,15.94-.57,25.26,15.08Z"/>
  <ellipse cx="81.66" cy="75.86" rx="6.97" ry="13.38"/>
  <ellipse cx="170.48" cy="76.7" rx="6.97" ry="13.38"/>
  <path class="cls-10" d="M28.98,95.49L84.76.15,47.78.02S23.94,1.37,13.94,24.82c0,0-31.37,55.84,0,81.78,0,0,9.83-.24,15.04-11.1Z"/>
  <path class="cls-9" d="M196.34,151.7c3,31.8-38.84,37.32-38.84,37.32-33.15,42.96-59.16,0-59.16,0-46.64-7.07-41.04-37.32-41.04-37.32,0,0-3.07-38.47,40.71-48.9,0,0,19.79-6.26,58.73.8,0,0,39.31,7.07,39.7,43.07l-.1,5.03Z"/>
  <path class="cls-10" d="M102.04,126.15s22.98-15.9,50.73.57c0,0-4.5,23.61-25.45,24.98,0,0-22.68-.35-25.28-25.55Z"/>
  <path class="cls-5" d="M126.79,159.8s-14.97,2.29-20.03,17.19v12.75s19.08,33.51,41.77,0v-13.32s-2.73-12.03-21.74-16.61Z"/>
  <path class="cls-6" d="M148.53,189.73l-41.77.28s19.12,33.06,41.77-.28Z"/>
  <path class="cls-4" d="M119.03,202.09c-.14-.3-1.87,15.72-3.52,19.75,0,0-.14,4.54,1.34,5.54,0,0,3.25,2.77,5.64-.09s.31-8.72.31-8.72c0,0-3.4-15.51-3.76-16.48"/>
  <path class="cls-4" d="M139.64,200.97c-.2-.43-2.63,22.13-4.96,27.81,0,0-.2,6.39,1.89,7.81,0,0,4.58,3.91,7.94-.13s.43-12.28.43-12.28c0,0-4.78-21.84-5.29-23.21"/>
  <line class="cls-2" x1="116.38" y1="168.05" x2="135.28" y2="168.16"/>
  <line class="cls-1" x1="116.36" y1="173.65" x2="135.28" y2="173.76"/>
  <line class="cls-2" x1="116.33" y1="179.1" x2="129.27" y2="179.17"/>
  <line class="cls-2" x1="116.33" y1="176.74" x2="130.39" y2="176.82"/>
  <line class="cls-2" x1="116.35" y1="175.2" x2="131.6" y2="175.28"/>
  <line class="cls-2" x1="116.27" y1="171.57" x2="135.34" y2="171.67"/>
  <path class="cls-10" d="M221.61,96.73L168.27,0l36.97.81s23.8,1.96,33.19,25.65c0,0,29.95,56.62-2.07,81.75,0,0-9.82-.49-14.75-11.48Z"/>
</svg>