<?xml version="1.0" encoding="UTF-8"?>
<svg id="Lag_1" data-name="Lag 1" xmlns="http://www.w3.org/2000/svg" viewBox="0 0 403.81 254.94">
  <defs>
    <style>
      .cls-1 {
        fill: #d80000;
      }

      .cls-2 {
        fill: #fff;
      }
    </style>
  </defs>
  <path class="cls-2" d="M95.93,17.79s-11.3-25.88-50.13-15.2c0,0-28.97,5.34-42.53,45.61-13.56,40.27,19.31,62.86,19.31,62.86,0,0,38.21,30.61,83.61,0,0,0,12.53-18.49-9.66-20.13,0,0-39.03,18.08-60.6-3.49-21.57-21.57-3.08-44.37-3.08-44.37,0,0,16.64-32.66,50.74-16.02,0,0,15.61,4.73,12.33-9.24Z"/>
  <path class="cls-2" d="M131.47,42.85s-24.45,7.6-2.05,20.54l.82,21.37s5.83,23.83,22.64,25.06c0,0,4.89,1.23,18.86-3.49,0,0,15.82-13.15-1.64-18.28,0,0-10.89.62-16.02-.62l-1.19-1.85-2.09-19.31h15.2s17.46-11.71.21-20.34c0,0-4.11-2.05-14.79-1.44l-1.23-18.69s-6.57-18.49-16.23,0l-2.47,17.05Z"/>
  <path class="cls-2" d="M188.58,41.82v60.4s11.09,27.94,27.53,1.85v-11.92s2.67-16.64,8.22-24.24c0,0,4.52-2.05,14.79,4.52,0,0,13.76,2.47,9.86-13.76s-29.85-15.82-29.85-15.82c0,0-6.1.41-9.39,3.08l-2.88-2.88s-7.4-20.95-18.28-1.23Z"/>
  <path class="cls-2" d="M262.9,20.82l-1.64,75.19s-.82,6.37,5.55,12.12c6.37,5.75,13.97-1.64,13.97-1.64,0,0,2.47-1.85,3.49-10.07,0,0,.39-4.01.54-9.32l-3.77-66.28s.1-5.85-1.64-7.7-7.09-9.35-14.69,0c0,0-1.44,2.36-1.8,7.7Z"/>
  <path class="cls-2" d="M319.6,35.35l-.91,12.36s-.39,1.69-3.51,3.64c0,0-2.07,2.02-5.14,2.11,0,0-3.71-.34-6.05.68-2.34,1.02-9.17,6.78-1.12,14.44,0,0,2.34,3.9,10.15,4,0,0,3.07-.34,5.42,2.63l.49,10.83s.73,4.98,4.2,7.22c0,0,8.44,5.46,13.76-1.37,5.32-6.83,4.68-18.44,4.68-18.44,0,0,1.22-2.63,3.71-3.76,2.49-1.12,5.56-2.29,5.56-2.29,0,0,13.52-9.27-.29-14.54,0,0-7.17-.49-9.86-2.73l-1.61-1.61-.1-2.78-.73-7.27-2.44-3.95-2.05-2.24-3.46-2.98h-3.46l-1.95.39-1.66,1.22-2.63,2.1-.98,2.33Z"/>
  <path class="cls-1" d="M126.32,176.47s-6.78-21.57-31.43-9.66c-24.65,11.92-25.99,27.73-25.99,27.73,0,0-2.05,11.61-.62,23.93s15.72,20.03,15.72,20.03c0,0,12.53,6.37,28.45.51,0,0,13.56-4.42,16.9-8.37,0,0,7.96-6.73-.77-10.22l-30.71-.62s-8.06-2.93-7.96-11.09,3.7-15.36,3.7-15.36c0,0,12.22-21.88,23.06-3.75,0,0,12.69,6.52,9.66-13.15Z"/>
  <path class="cls-1" d="M142.27,138.78l1.26,79.35s-2.05,26.09,18.08,20.34c0,0,6.78,4.52,11.09-20.13,0,0,5.55-25.27,13.35-23.63,0,0,3.34-3.9,4.57,27.22,0,0,2.31,27.12,18.64,8.78,0,0,9.86-9.4,0-40.21-9.86-30.82-38.98-13.4-38.98-13.4l-6.01-41.91s-2.62-10.84-10.53-11.56c0,0-10.55-.1-10.66,7.81l-.82,7.34Z"/>
  <path class="cls-1" d="M249.25,219.87s27.01-.21,35.54-10.27c8.53-10.07,1.03-26.5,1.03-26.5,0,0-6.78-11.81-26.3-15.61-19.52-3.8-33.18,17.26-33.18,17.26,0,0-7.81,10.99-4.62,36.16,3.18,25.17,34.41,25.78,34.41,25.78,0,0,12.63,0,15.1-2.47,0,0,17.36-9.66-.92-17.87,0,0-17.15-3.49-21.06-6.47Z"/>
  <path class="cls-1" d="M295.98,193.99l9.86,45.31s8.73,24.13,27.58,2.15l8.37-16.02,6.16,16.02s11.71,27.73,29.58,3.7l25.27-48.33s2.62-8.83-.62-13.3c0,0-1.54-6.63-14.64-5.7,0,0-7.95.72-11.5,14.63l-10.43,22.09-9.85-26.18s-6.98-13.56-19.11-.31l-11.2,22.8-7.29-20.95s-4.31-9.55-6.98-10.79c0,0-9.14-2.47-12.63,2.77-3.49,5.24-2.58,12.11-2.58,12.11Z"/>
  <path d="M247.81,196.81l23.42-1.23s-5.55-8.63-13.4-7.86c-7.86.77-10.01,9.09-10.01,9.09Z"/>
</svg>