<?xml version="1.0" encoding="UTF-8"?>
<svg id="Lag_1" data-name="Lag 1" xmlns="http://www.w3.org/2000/svg" viewBox="0 0 179.7 194.81">
  <defs>
    <style>
      .cls-1 {
        fill: #ff4b00;
      }
    </style>
  </defs>
  <path d="M18.34,94.86s8.94-17.33,28.73-10.4c0,0,5.74,3.8,6.52,10.1,0,0,.93,3.5-.6,6.52,0,0-.54.71,0,1.53s2.79,2.28,3.01,6.98l-.26,5.37-.15,15.84s-1.94,7.9-12.22,6.78c-10.29-1.12-15.17-7.34-15.17-7.34l-1.71-7.12-8.16-25.01v-3.26Z"/>
  <path class="cls-1" d="M31.01,99.12s-3.24,3.54-.3,7.86,6.47.56,6.47.56c0,0,1.73-3.91-.58-6.82s-5.59-1.6-5.59-1.6Z"/>
  <path class="cls-1" d="M45.94,97.11s-2.77,3.03-.25,6.72,5.53.48,5.53.48c0,0,1.48-3.35-.49-5.83s-4.78-1.37-4.78-1.37Z"/>
  <path class="cls-1" d="M33.64,124.35s3.59-8.2,17.79-9.2c0,0-4.81,6.56-2.01,10.55s-8.41,3.69-8.41,3.69c0,0-6.19-1.88-7.37-5.04Z"/>
  <polygon points="112.25 0 138.11 10.58 116.05 36 110.98 34.51 112.25 0"/>
  <polygon points="159.09 21.77 175.37 44.49 143.17 54.28 139.67 50.32 159.09 21.77"/>
  <polygon points="179.7 66.81 178.8 94.74 147.29 82.92 146.92 77.65 179.7 66.81"/>
  <path d="M28.51,147.39s25.21-3.52,31.86-13.3c0,0,6.93,1.96,9.28,5.37s17.16,4.86,17.16,4.86l-12.35-23.2s-3.41-.95-2.18-8.05c0,0-10.12-2.57-7.6-12.13l39.34-50.12s44.72,2.5,27.73,46.04l-42.63,13.69s4.92,2.5,4.02,10.29l5.37.67-4.1,7.53-5.33-.93s12.24,19.51,16.43,21.19c0,0,1.23,4.75-2.29,7.04l-38.63-2.4s-2.94,37.41,1.16,40.88H25.49l-3.28-12.7-13.42,12.7H0l28.51-47.42Z"/>
  <ellipse class="cls-1" cx="116.21" cy="74.9" rx="8.99" ry="18.44" transform="translate(-22 71.46) rotate(-31.38)"/>
</svg>