<svg id="Lag_1" data-name="Lag 1" xmlns="http://www.w3.org/2000/svg" viewBox="0 0 1920 1080">
  <defs>
    <style>
      .cls-1 {
        fill: #f6bc9e;
      }

      .cls-2 {
        fill: #cfb97d;
      }

      .cls-3, .cls-4 {
        fill: #f1af98;
      }

      .cls-5 {
        fill: #e94b4d;
      }

      .cls-6 {
        fill: #d5858a;
      }

      .cls-7 {
        stroke: #403020;
      }

      .cls-7, .cls-8, .cls-9, .cls-10, .cls-4 {
        stroke-miterlimit: 10;
      }

      .cls-7, .cls-11 {
        fill: #403020;
      }

      .cls-8 {
        stroke: #c3d8ed;
      }

      .cls-8, .cls-10 {
        fill: #c3d8ed;
      }

      .cls-12 {
        fill: #8696b1;
      }

      .cls-9 {
        stroke: #000;
      }

      .cls-13 {
        fill: #6c4825;
      }

      .cls-14 {
        fill: #fcc118;
      }

      .cls-15 {
        fill: #f1f1f1;
      }

      .cls-16 {
        fill: #ea8460;
      }

      .cls-10 {
        stroke: #8696b1;
      }

      .cls-17 {
        fill: #ffcd37;
      }

      .cls-18 {
        fill: #d9dce5;
      }

      .cls-19 {
        fill: #956138;
      }

      .cls-20 {
        fill: #1d1d1b;
      }

      .cls-4 {
        stroke: #ea8460;
        stroke-width: .5px;
      }
    </style>
  </defs>
  <g id="Dreng">
    <path class="cls-7" d="M579.65,480.31c6.26-2.71,9.97-26.36,9.97-26.36-.07-3.48,1.54-5.75,1.54-5.75,2.21-3.35-.4-11.64-.4-11.64-.94-11.44-2.81-14.62-2.81-14.62-31.71-55.8-100.46-38.74-100.46-38.74-6.92,2.21-13.55,13.15-13.55,13.15-8.23,1.61-15.79,11.84-15.79,11.84-29.17,50.31.27,112.13.27,112.13,30.51,37.73,51.65,32.65,51.65,32.65,0,0-26.93-19.37-33.62-40.91,0,0-12.75,10.84-13.15-7.09s11.31-22.08,11.31-22.08c0,0,6.76-.94,6.69,6.22v4.35s0,5.15,4.01,1.07c0,0,10.37-11.51,10.64-20.67,0,0,5.95-18.3-2.94-30.17,0,0,23.72,19.74,51.32,15.22,0,0-8.96-9.6-10.73-17.36-.09-.37-.15-.74-.2-1.1,0,0,28.8,21.38,42.55,22.78,0,0-.3,18.83,3.71,17.09Z"/>
    <path class="cls-8" d="M470.23,659.28v-42.95s0,0,0,0c3.51-45.4,40.69-48.81,41.94-48.97.02,0,.02.02.04.04.7,1.39,17.72,34.31,43.7-1.6.59-.81,38.34,2.21,41.95,48.97,0,0,0,0,0,0v42.89s-.03.06-.06.06l-127.76.76"/>
    <path class="cls-11" d="M474.2,377.63c-4.46,4.02-1.34,13.5.17,18.54,0,0-.85.39-.85.39-2.56-4.76-8.1-7.82-13.53-6.87-2.3.16-7.67,2.55-2.71.46,4.37-1.6,9.55-1.21,13.28,1.77,1.5,1.15,2.78,2.54,3.79,4.2l-.85.39c-1.96-5.64-5.64-15.58-.36-20.33,0,0,1.06,1.45,1.06,1.45h0Z"/>
    <path class="cls-1" d="M512.34,557.52s19,13.78,42.02-4.15l.67,11.24s-21.61,38.94-43.66,3.41l.97-10.5Z"/>
    <path class="cls-1" d="M511.66,552.5s-31.03-21.18-34.94-41.65c0,0-13.31,11.98-12.51-7.79,0,0-.05-14.55,10.69-19.27,0,0,5.47-.95,5.67,5.77l-.15,4.52s.95,5.37,5.17,1.3c0,0,10.91-11.47,11.04-21.18,0,0,5.29-15.12-.47-27.23,0,0,19.47,16.53,49.68,12.51,0,0-10.32-12.51-11.07-16.83,0,0,28.05,20.32,40.34,21.43,0,0-.2,19.62,4.42,17.11,0,0,20.74,43.87-23.82,64.75l-.84,2.14c-7.54,7.06-16.39,9.71-43.2,4.42Z"/>
    <ellipse class="cls-3" cx="510.2" cy="502.17" rx="9.08" ry="3.46"/>
    <ellipse class="cls-9" cx="516.3" cy="478.79" rx="4.84" ry="2.73" transform="translate(-35.21 916.57) rotate(-81.28)"/>
    <ellipse class="cls-9" cx="559.55" cy="477.77" rx="4.84" ry="2.73" transform="translate(2.51 958.45) rotate(-81.28)"/>
    <path class="cls-3" d="M550.2,494.73c5.82-1.41,64.28-2.74,64.28-2.74,23.48,7.43,1,14.25,1,14.25l-64.08,5.65-1.2-17.16Z"/>
    <path class="cls-16" d="M512.29,557.7l-.69-5.02s27.62,4.95,43.2-4.42l-.5,5.29s-19.03,17.46-42.02,4.15Z"/>
    <path class="cls-3" d="M518.18,525.14s16.06-5.82,18.47,9.23c0,0,1.05,4.92-2.71,2.26,0,0-.8-13.5-15.35-8.68,0,0-3.98-.64-.4-2.81Z"/>
    <path class="cls-4" d="M470.31,496.11s3.31,2.91,3.56,8.68"/>
    <path class="cls-4" d="M472.92,499.83s-1.76.25-2.61,2.56"/>
    <path class="cls-10" d="M504.8,623s-4.05,21.95-.57,36.53"/>
    <path class="cls-10" d="M564.85,622.15s4.05,21.95.57,36.53"/>
  </g>
  <g id="Lektier">
    <polygon class="cls-12" points="896.57 607.86 896.57 396.68 726.48 396.68 726.48 645.27 854.72 645.27 896.57 607.86"/>
    <polygon class="cls-18" points="854.88 645.29 854.7 606.51 896.57 607.86 854.88 645.29"/>
    <rect class="cls-17" x="840.27" y="408.47" width="26.13" height="179.9" transform="translate(600.38 -456.89) rotate(44.88)"/>
    <rect class="cls-14" x="842.24" y="404.08" width="13.55" height="179.66" transform="translate(595.74 -455.1) rotate(44.87)"/>
    <rect class="cls-15" x="908.07" y="423.67" width="26.23" height="13.3" transform="translate(566.29 -522.47) rotate(44.53)"/>
    <path class="cls-5" d="M916.33,416.55l18.79,18.36,5.64-5.83s-.05-17-19.01-18.07l-5.43,5.54Z"/>
    <polyline class="cls-2" points="780.61 552.94 770.86 580.68 799.12 571.38"/>
    <polygon points="774.5 570.4 781.38 577.18 770.86 580.68 774.5 570.4"/>
  </g>
  <g id="Hunden">
    <path class="cls-13" d="M227.37,377.14l53.01-.96,40.55,70.57s-.29,40.31-17.54,49.89c0,0-42.49-42.22-83.37,1.2,0,0-25.86-8.3-29.38-40.23l36.72-80.47Z"/>
    <rect class="cls-11" x="232.31" y="526.24" width="58.12" height="136.03"/>
    <path class="cls-13" d="M209.83,477.32s-6.81,16.51-7.77,31.46l-.57,132.2s18.01-19.35,37.36,1.34v-85.47c-.85,3.2,17.46-33.31,39.68.24l.18,88.21s18.37-20.26,36.57-2.63l1.16-134.65s-1.15-16.86-8.05-28.36c0,0-4.22,23.37-26.25,26.82,0,0-2.87,2.3-7.28-3.45,0,0-11.88,34.68-32.19-.19,0,0-.38,4.6-9.2,2.87,0,0-19.63-6.17-23.65-28.39Z"/>
    <path class="cls-19" d="M202.05,662.27h37.52s8.22-5.35-.96-21.63c0,0-15.57-19.24-36.88-.48,0,0-10.22,18.44.32,22.11Z"/>
    <path class="cls-19" d="M279.29,662.27h37.52s8.22-5.35-.96-21.63c0,0-15.57-19.24-36.88-.48,0,0-10.22,18.44.32,22.11Z"/>
    <path class="cls-11" d="M198.33,659.53s-7.18-6.43-7.87-11.22,3.29-93.32,11.43-102.9l.17,94.63s-6.01,9.51-3.74,19.49Z"/>
    <path class="cls-19" d="M191.25,624.87s-21.43-17.16-13.45-61.23c0,0,9.02,37.58,14.61,41.09l-1.16,20.14Z"/>
    <path class="cls-19" d="M219.69,492.79s1.68,46.22,25.75,20.6"/>
    <path class="cls-19" d="M303.75,492.99s-1.68,46.22-25.75,20.6"/>
    <ellipse class="cls-19" cx="261.76" cy="490.95" rx="42.15" ry="24.75"/>
    <ellipse class="cls-6" cx="261.64" cy="518.41" rx="15.77" ry="16.05"/>
    <path class="cls-11" d="M250.78,484.32s10.54-8.94,21.55.32c0,0-.08,4.79-5.67,8.62,0,0-5.03,2.08-9.9.08,0,0-6.63-4.07-5.99-9.02Z"/>
    <path class="cls-11" d="M280.37,376.18l40.55,70.57c28.21,20.46,22.56-23.33,22.56-23.33-5.51-31.13-35.68-47.9-35.68-47.9l-106.57,1.2s-34.67,22.39-30.59,62.63c0,0,1.94,34.85,20.01,18.26l36.72-80.47"/>
    <ellipse class="cls-20" cx="283.22" cy="430.6" rx="4.71" ry="7.42"/>
    <ellipse class="cls-20" cx="235.96" cy="430.52" rx="4.71" ry="7.42"/>
  </g>
</svg>